<svg width="43" height="43" viewBox="0 0 43 43" fill="none" xmlns="http://www.w3.org/2000/svg">
<g opacity="0.4">
<mask id="mask0_2057_1720" style="mask-type:luminance" maskUnits="userSpaceOnUse" x="0" y="0" width="43" height="43">
<path d="M0.624264 0.582733H42.8259V42.7866H0.624264V0.582733Z" fill="white"/>
</mask>
<g mask="url(#mask0_2057_1720)">
<path d="M42.8259 21.6841C42.8259 25.8576 41.5883 29.9374 39.2696 33.4075C36.9509 36.8777 33.6552 39.5823 29.7994 41.1794C25.9435 42.7764 21.7007 43.1942 17.6074 42.38C13.5141 41.5657 9.75418 39.5558 6.80315 36.6046C3.85212 33.6534 1.84249 29.8934 1.02842 25.8001C0.214352 21.7067 0.632397 17.4639 2.22969 13.6082C3.82698 9.75241 6.53178 6.45691 10.002 4.1384C13.4723 1.81989 17.5521 0.582504 21.7256 0.582733C27.3219 0.58304 32.6888 2.80634 36.6458 6.76358C40.6029 10.7208 42.8259 16.0879 42.8259 21.6841ZM14.6953 21.6841C14.6939 22.9712 15.1643 24.2141 16.0173 25.1779C16.529 25.7567 17.0268 26.2985 17.3834 26.655L22.3496 31.7069C22.5041 31.8799 22.6913 32.0206 22.9004 32.1209C23.1095 32.2212 23.3364 32.2792 23.568 32.2915C23.7996 32.3038 24.0313 32.2701 24.2498 32.1924C24.4684 32.1148 24.6694 31.9947 24.8413 31.839C25.0132 31.6834 25.1527 31.4952 25.2516 31.2855C25.3505 31.0757 25.4069 30.8484 25.4176 30.6167C25.4284 30.3851 25.3931 30.1536 25.314 29.9356C25.2349 29.7176 25.1134 29.5174 24.9566 29.3465C24.9254 29.3118 24.8918 29.2782 24.8571 29.2446L19.8792 24.1811C19.5504 23.85 19.1036 23.358 18.6487 22.8464C18.3652 22.5251 18.2088 22.1114 18.2088 21.6829C18.2088 21.2545 18.3652 20.8408 18.6487 20.5195C19.1024 20.0102 19.5493 19.517 19.8676 19.1975L24.8547 14.1224C25.1883 13.8016 25.382 13.3622 25.3938 12.8996C25.4055 12.4369 25.2344 11.9882 24.9175 11.6509C24.6006 11.3136 24.1635 11.1148 23.701 11.0977C23.2385 11.0806 22.7878 11.2465 22.4469 11.5594C22.4121 11.5918 22.3797 11.6254 22.3473 11.6613L17.3695 16.7236C17.0222 17.0709 16.5255 17.615 16.0173 18.188C15.1613 19.1513 14.6888 20.3954 14.6895 21.6841" fill="#393A3A"/>
</g>
</g>
</svg>
