<svg width="16" height="14" viewBox="0 0 16 14" fill="none" xmlns="http://www.w3.org/2000/svg">
<path d="M2.37731 0.706055L1.35705 1.72631L3.00863 3.37789C1.08448 4.92503 0.179459 6.92778 0.121191 7.06434L0 7.349L0.121191 7.63366C0.217151 7.85805 2.53674 13.1211 8 13.1211C9.49089 13.1211 10.7397 12.7239 11.7795 12.1487L13.6227 13.9919L14.6429 12.9717L2.37731 0.706055ZM8 1.57694C7.12625 1.57694 6.34055 1.72169 5.6241 1.94896L6.81205 3.13692C7.18795 3.06549 7.5808 3.01995 8 3.01995C11.8933 3.01995 13.893 6.3303 14.4147 7.34618C14.2025 7.75239 13.7377 8.5409 13.0097 9.33456L14.0384 10.3633C15.2505 9.05157 15.8319 7.74261 15.8788 7.63366L16 7.349L15.8788 7.06434C15.7828 6.83995 13.4633 1.57694 8 1.57694ZM4.04016 4.40942L5.51982 5.88907C5.264 6.31657 5.11397 6.81429 5.11397 7.349C5.11397 8.94065 6.40835 10.235 8 10.235C8.53471 10.235 9.03244 10.085 9.45993 9.82918L10.7042 11.0735C9.92956 11.4408 9.03053 11.678 8 11.678C4.10674 11.678 2.10699 8.3677 1.58534 7.35182C1.88522 6.77753 2.68987 5.44626 4.04016 4.40942ZM8.1536 4.47847L10.8705 7.1954C10.7919 5.72857 9.62043 4.55711 8.1536 4.47847ZM6.61053 6.97979L8.36921 8.73847C8.25105 8.77023 8.12836 8.79202 8 8.79202C7.20418 8.79202 6.55698 8.14482 6.55698 7.349C6.55698 7.22064 6.57877 7.09795 6.61053 6.97979Z" fill="#999999"/>
</svg>
