<svg width="38" height="38" viewBox="0 0 38 38" fill="none" xmlns="http://www.w3.org/2000/svg">
<g filter="url(#filter0_d_2569_8405)">
<circle cx="19" cy="19" r="15" fill="white"/>
<circle cx="19" cy="19" r="14.5" stroke="#393A3A" stroke-opacity="0.3"/>
</g>
<path d="M12.6537 14.4871L12.6537 14.4872L16.9865 18.8199L17.1632 18.9967L16.9865 19.1734L12.6537 23.5062L12.6501 23.5098L12.6501 23.5097C12.5252 23.6296 12.4255 23.7733 12.3568 23.9322C12.2881 24.0911 12.2518 24.2622 12.2501 24.4353C12.2483 24.6084 12.2811 24.7802 12.3465 24.9405C12.412 25.1008 12.5088 25.2464 12.6312 25.3688C12.7536 25.4912 12.8992 25.588 13.0595 25.6534C13.2198 25.7189 13.3916 25.7517 13.5647 25.7499C13.7378 25.7482 13.9089 25.7119 14.0678 25.6432L14.167 25.8727L14.0678 25.6432C14.2267 25.5745 14.3703 25.4748 14.4903 25.3499L14.4938 25.3462L14.4938 25.3463L18.8265 21.0135L19.0033 20.8368L19.1801 21.0135L23.5128 25.3463L23.5164 25.3499L23.5164 25.3499C23.6363 25.4748 23.7799 25.5745 23.9389 25.6432C24.0978 25.7119 24.2688 25.7482 24.442 25.7499C24.6151 25.7517 24.7868 25.7189 24.9471 25.6535C25.1074 25.588 25.253 25.4912 25.3755 25.3688C25.4979 25.2464 25.5947 25.1008 25.6601 24.9405C25.7255 24.7802 25.7583 24.6084 25.7566 24.4353C25.7548 24.2622 25.7185 24.0911 25.6498 23.9322C25.5811 23.7733 25.4814 23.6296 25.3565 23.5097L25.3529 23.5062L25.3529 23.5062L21.0202 19.1734L20.8434 18.9967L21.0202 18.8199L25.3529 14.4872L25.3554 14.4847L25.3554 14.4847C25.5435 14.3019 25.6719 14.0666 25.7239 13.8095C25.7759 13.5525 25.7491 13.2857 25.6468 13.0442C25.5446 12.8027 25.3719 12.5977 25.1511 12.4561C24.9304 12.3145 24.6721 12.2429 24.41 12.2506L12.6537 14.4871ZM12.6537 14.4871L12.6513 14.4848M12.6537 14.4871L12.6513 14.4848M12.6513 14.4848C12.4659 14.3043 12.3385 14.0726 12.2853 13.8194C12.2322 13.5661 12.2557 13.3028 12.353 13.063C12.4502 12.8232 12.6168 12.6178 12.8313 12.4731C13.0458 12.3285 13.2986 12.251 13.5573 12.2507L12.6513 14.4848ZM23.5128 12.6471L23.5128 12.6471L19.1801 16.9798L19.0033 17.1566L18.8265 16.9798L14.4938 12.6471L14.4914 12.6446L14.4914 12.6446C14.37 12.5198 14.2247 12.4206 14.0643 12.353C13.9039 12.2853 13.7315 12.2505 13.5574 12.2507L23.5128 12.6471ZM23.5128 12.6471L23.5154 12.6445M23.5128 12.6471L23.5154 12.6445M23.5154 12.6445C23.751 12.402 24.0719 12.2607 24.4099 12.2506L23.5154 12.6445Z" fill="black" stroke="white" stroke-width="0.5"/>
<defs>
<filter id="filter0_d_2569_8405" x="0" y="0" width="38" height="38" filterUnits="userSpaceOnUse" color-interpolation-filters="sRGB">
<feFlood flood-opacity="0" result="BackgroundImageFix"/>
<feColorMatrix in="SourceAlpha" type="matrix" values="0 0 0 0 0 0 0 0 0 0 0 0 0 0 0 0 0 0 127 0" result="hardAlpha"/>
<feOffset/>
<feGaussianBlur stdDeviation="2"/>
<feComposite in2="hardAlpha" operator="out"/>
<feColorMatrix type="matrix" values="0 0 0 0 0 0 0 0 0 0 0 0 0 0 0 0 0 0 0.1 0"/>
<feBlend mode="normal" in2="BackgroundImageFix" result="effect1_dropShadow_2569_8405"/>
<feBlend mode="normal" in="SourceGraphic" in2="effect1_dropShadow_2569_8405" result="shape"/>
</filter>
</defs>
</svg>
