<svg width="32" height="31" viewBox="0 0 32 31" fill="none" xmlns="http://www.w3.org/2000/svg">
<path d="M31.789 13.3513C31.7193 13.4423 31.6291 13.5158 31.5254 13.5658C31.4218 13.6158 31.3078 13.6409 31.1925 13.6392C31.0203 13.637 30.8536 13.5784 30.7185 13.4725L28.9598 12.0788V26.9851C28.9538 27.5183 28.8418 28.0451 28.6303 28.5354C28.4188 29.0257 28.1118 29.4699 27.727 29.8427C27.3421 30.2154 26.8869 30.5095 26.3874 30.708C25.8878 30.9065 25.3536 31.0055 24.8154 30.9995H19.7841V22.6829C19.7921 21.6662 19.3967 20.6869 18.683 19.9562C18.3325 19.5905 17.9102 19.2997 17.4421 19.1017C16.9739 18.9037 16.4699 18.8027 15.9608 18.8049C15.4527 18.8108 14.9508 18.9158 14.4837 19.1139C14.0165 19.312 13.5934 19.5993 13.2383 19.9595C12.8833 20.3196 12.6034 20.7454 12.4145 21.2127C12.2256 21.68 12.1316 22.1796 12.1376 22.6829V30.9995H7.13686C6.59661 31.0076 6.06006 30.9101 5.55786 30.7127C5.05565 30.5152 4.59762 30.2218 4.20993 29.849C3.82223 29.4762 3.51247 29.0314 3.29834 28.54C3.0842 28.0487 2.96988 27.5203 2.9619 26.9851V12.0637L1.18793 13.4725C1.0284 13.5776 0.83487 13.6195 0.64564 13.5899C0.45641 13.5604 0.285264 13.4616 0.166064 13.313C0.0468646 13.1645 -0.0117049 12.977 0.00194479 12.7878C0.0155945 12.5985 0.100469 12.4212 0.239775 12.2909L15.5326 0.171984C15.6652 0.0609343 15.8331 0 16.0067 0C16.1803 0 16.3483 0.0609343 16.4808 0.171984L31.7737 12.2909C31.9158 12.4305 31.9971 12.6198 31.9999 12.818C32.0028 13.0163 31.927 13.2078 31.789 13.3513Z" />
</svg>
