<svg width="17" height="24" viewBox="0 0 17 24" fill="none" xmlns="http://www.w3.org/2000/svg">
<path d="M2.49348 9.04366C2.49348 8.18354 2.49348 7.31416 2.49348 6.44478C2.53176 5.06123 3.06741 3.73789 4.00224 2.71723C4.93707 1.69656 6.20845 1.04701 7.58332 0.887648C8.95819 0.72829 10.3444 1.0698 11.4879 1.84956C12.6315 2.62933 13.4556 3.79515 13.8094 5.13325C13.9533 6.16312 14.0114 7.20307 13.983 8.24256C13.9946 8.51229 13.983 8.78444 13.983 9.04607C14.3481 9.05856 14.7063 9.14826 15.0341 9.30947C15.3619 9.47069 15.6517 9.69974 15.8844 9.98128C16.1172 10.2628 16.2875 10.5905 16.3842 10.9428C16.4809 11.295 16.5017 11.6638 16.4453 12.0247C16.4453 14.3666 16.4453 16.7073 16.4453 19.0492C16.4651 19.6879 16.3538 20.3239 16.1182 20.9179C15.8826 21.5119 15.5279 22.0514 15.0757 22.503C14.6236 22.9546 14.0837 23.3087 13.4894 23.5435C12.8951 23.7783 12.259 23.8889 11.6203 23.8684C9.36366 23.873 7.10743 23.873 4.85158 23.8684C4.21297 23.8885 3.57701 23.7774 2.98295 23.5422C2.38889 23.307 1.84931 22.9527 1.39753 22.5009C0.945737 22.0491 0.591317 21.5096 0.35612 20.9155C0.120923 20.3214 0.00993834 19.6854 0.0300229 19.0468C0.0261641 16.7053 0.0261641 14.3638 0.0300229 12.0223C-0.0254213 11.6615 -0.0039003 11.2931 0.0931544 10.9412C0.190209 10.5894 0.360602 10.262 0.593155 9.98071C0.825708 9.69939 1.11515 9.47055 1.44246 9.30905C1.76978 9.14755 2.12757 9.05707 2.49231 9.04366M8.26427 10.7373C6.41977 10.7373 4.5749 10.7373 2.72963 10.7373C1.95517 10.7373 1.67503 11.014 1.67503 11.7792C1.67503 14.2226 1.67503 16.6655 1.67503 19.1081C1.66276 19.5196 1.73456 19.9292 1.88604 20.312C2.03752 20.6947 2.26549 21.0425 2.55601 21.3341C2.84653 21.6257 3.19349 21.8549 3.57565 22.0079C3.95782 22.1608 4.36717 22.2341 4.77865 22.2234C7.08466 22.2318 9.39068 22.2318 11.6967 22.2234C12.1082 22.2344 12.5176 22.1614 12.8999 22.0087C13.2822 21.856 13.6293 21.6269 13.92 21.3353C14.2107 21.0438 14.4388 20.696 14.5903 20.3132C14.7419 19.9305 14.8137 19.5209 14.8014 19.1094C14.8084 16.6668 14.8014 14.2241 14.8014 11.7803C14.8014 11.0163 14.5178 10.7384 13.7469 10.7384C11.9193 10.7384 10.0914 10.7384 8.26314 10.7384M12.3403 9.0715C12.3403 8.50426 12.3403 7.97635 12.3403 7.45079C12.3576 6.92177 12.3437 6.39221 12.2987 5.86483C12.1515 4.85478 11.6177 3.94136 10.8099 3.31738C10.0021 2.69341 8.98357 2.40764 7.96911 2.52038C7.0808 2.52263 6.22149 2.83683 5.54124 3.40811C4.861 3.97938 4.40303 4.77153 4.24729 5.64608C4.15875 6.78702 4.14907 7.93262 4.21834 9.07489L12.3403 9.0715Z" fill="#393A3A"/>
<path d="M8.08608 13.1903C8.43713 13.1676 8.78664 13.254 9.08685 13.4373C9.38707 13.6207 9.62337 13.8922 9.76349 14.2148C9.8921 14.5162 9.92317 14.8502 9.85238 15.1701C9.78159 15.49 9.61248 15.7798 9.36874 15.9988C9.25905 16.0878 9.17312 16.2025 9.11858 16.3328C9.06404 16.4631 9.0426 16.6049 9.05619 16.7455C9.0724 17.4401 9.06892 18.1461 9.05619 18.8465C9.06776 18.9615 9.05498 19.0777 9.01874 19.1875C8.9825 19.2973 8.92359 19.3982 8.84581 19.4837C8.76803 19.5692 8.67313 19.6373 8.56728 19.6838C8.46143 19.7302 8.347 19.754 8.23142 19.7533C8.11583 19.7527 8.00168 19.7276 7.89636 19.68C7.79105 19.6323 7.69694 19.5631 7.62013 19.4768C7.54332 19.3904 7.48556 19.2888 7.45056 19.1786C7.41556 19.0684 7.40409 18.9522 7.41696 18.8373C7.4077 18.3245 7.41696 17.8128 7.41696 17.3C7.46654 17.0283 7.44983 16.7487 7.36821 16.4849C7.28658 16.2211 7.14246 15.9809 6.94812 15.7847C6.72885 15.5608 6.59341 15.2682 6.56452 14.9562C6.53564 14.6441 6.61509 14.3316 6.78953 14.0713C6.90656 13.8217 7.08857 13.6083 7.31649 13.4533C7.5444 13.2983 7.80981 13.2074 8.08491 13.1903" fill="#393A3A"/>
</svg>
