<svg width="26" height="28" viewBox="0 0 26 28" fill="none" xmlns="http://www.w3.org/2000/svg">
<path d="M21.925 22.6667V22.3649L21.7116 22.5783L20.6716 23.6183L20.635 23.6549V23.7067V25.44C20.635 25.6635 20.4635 25.835 20.24 25.835H2.56C2.33654 25.835 2.165 25.6635 2.165 25.44V2.56C2.165 2.3345 2.3345 2.165 2.56 2.165H20.24C20.4635 2.165 20.635 2.33654 20.635 2.56V4.29333V4.34511L20.6716 4.38172L21.7116 5.42172L21.925 5.63511V5.33333V2.56C21.925 1.63581 21.1642 0.875 20.24 0.875H2.56C1.63581 0.875 0.875 1.63581 0.875 2.56V25.44C0.875 26.3642 1.63581 27.125 2.56 27.125H20.24C21.1642 27.125 21.925 26.3642 21.925 25.44V22.6667Z" fill="white" stroke="white" stroke-width="0.25"/>
<path d="M19.6933 9.88682L19.6932 9.88717C19.6394 10.0672 19.6954 10.2581 19.8342 10.3833L23.0815 13.5016H12.2294H12.194V13.5014L12.188 13.5017C11.9164 13.5147 11.6947 13.7384 11.7089 14.013C11.7229 14.2844 11.9604 14.4888 12.2322 14.4776H23.0815L19.8369 17.5933C19.6917 17.7102 19.6225 17.8972 19.6663 18.0809L19.6664 18.0812C19.7106 18.2644 19.8596 18.4051 20.0442 18.4462L20.0445 18.4462C20.2288 18.4868 20.4196 18.4238 20.5416 18.2841L24.6598 14.3408L24.6599 14.3408L24.6619 14.3387L24.9218 14.0778L25.0097 13.9896L24.9218 13.9014L24.6619 13.6405L24.662 13.6404L24.6598 13.6384L20.5389 9.69243C20.4346 9.58584 20.2869 9.53325 20.1394 9.54277H20.1083H20.0977L20.0873 9.54454C19.9005 9.5763 19.7474 9.70794 19.6933 9.88682Z" fill="white" stroke="white" stroke-width="0.25"/>
</svg>
