<svg width="17" height="17" viewBox="0 0 17 17" fill="none" xmlns="http://www.w3.org/2000/svg">
<path d="M16.193 8.80258C16.193 10.4039 15.7182 11.9692 14.8285 13.3007C13.9388 14.6322 12.6744 15.6699 11.1949 16.2827C9.71547 16.8955 8.08752 17.0559 6.51696 16.7435C4.94639 16.4311 3.50373 15.6599 2.37142 14.5276C1.2391 13.3953 0.467982 11.9527 0.155577 10.3822C-0.156829 8.81161 0.00350488 7.18359 0.61631 5.70415C1.22912 4.22471 2.26687 2.96023 3.59833 2.07057C4.92979 1.18092 6.49516 0.706055 8.0965 0.706055C10.2438 0.706055 12.3032 1.55904 13.8216 3.07743C15.34 4.59582 16.193 6.65525 16.193 8.80258Z" fill="#FF642F"/>
<path d="M11.4919 9.10025C11.4919 9.77156 11.2928 10.4278 10.9198 10.9859C10.5469 11.5441 10.0168 11.9791 9.39658 12.236C8.77638 12.4929 8.09392 12.5601 7.43551 12.4292C6.77711 12.2982 6.17232 11.975 5.69763 11.5003C5.22294 11.0256 4.89967 10.4208 4.76871 9.76244C4.63774 9.10403 4.70497 8.42151 4.96187 7.8013C5.21876 7.18109 5.6538 6.65105 6.21197 6.27809C6.77014 5.90513 7.42636 5.70605 8.09767 5.70605C8.99786 5.70605 9.8612 6.06366 10.4977 6.70019C11.1343 7.33672 11.4919 8.20006 11.4919 9.10025Z" fill="white"/>
</svg>
