<svg width="21" height="22" viewBox="0 0 21 22" fill="none" xmlns="http://www.w3.org/2000/svg">
<path d="M4.45847 0.931118L4.45853 0.931123C4.84951 0.96304 5.20237 1.14385 5.43024 1.45793L5.45883 1.49734V1.50001C5.64424 1.76434 6.18494 2.58089 6.75684 3.44455L6.79413 3.50086L6.79424 3.50102C7.41138 4.43571 8.02492 5.36949 8.16132 5.58585M4.45847 0.931118L8.03468 5.66625M4.45847 0.931118C4.06686 0.899312 3.63904 1.01305 3.24985 1.28656M4.45847 0.931118L3.24985 1.28656M8.16132 5.58585C8.16141 5.58599 8.16149 5.58613 8.16158 5.58627L8.03468 5.66625M8.16132 5.58585C8.16123 5.58572 8.16115 5.58559 8.16107 5.58546L8.03468 5.66625M8.16132 5.58585C8.52846 6.16058 8.34412 6.80823 8.06859 7.33174M8.03468 5.66625C8.35633 6.16938 8.20539 6.74977 7.93586 7.26188M8.06859 7.33174C8.06864 7.33166 8.06868 7.33158 8.06872 7.3315L7.93586 7.26188M8.06859 7.33174C7.86689 7.71662 7.31281 8.68386 7.0909 9.07026M8.06859 7.33174L7.93586 7.26188M7.93586 7.26188L7.0909 9.07026M7.0909 9.07026C7.07065 9.03965 7.05454 9.01453 7.04194 8.99464L6.91523 9.07492L7.04528 9.14966C7.05824 9.12712 7.07356 9.10046 7.0909 9.07026ZM7.0909 9.07026C7.29828 9.38377 7.93939 10.2731 9.68601 12.0181L9.68606 12.0182C11.4312 13.7633 12.3206 14.4057 12.634 14.6133M7.0909 9.07026L9.58 12.1242C11.5009 14.0451 12.3939 14.6398 12.6293 14.789M12.634 14.6133C12.6038 14.6307 12.5771 14.646 12.5546 14.6589L12.6293 14.789M12.634 14.6133C12.6646 14.6336 12.6897 14.6497 12.7096 14.6623L12.6293 14.789M12.634 14.6133C13.0213 14.3911 13.9927 13.8355 14.3704 13.6358L14.3705 13.6357C14.8985 13.3569 15.5381 13.1881 16.1072 13.5362L16.1074 13.5363C16.6031 13.8402 19.8778 16.0198 20.2354 16.2708M12.6293 14.789C12.942 14.6093 14.0362 13.9822 14.4405 13.7684C14.9545 13.497 15.5295 13.3587 16.029 13.6641L20.2354 16.2708M3.24985 1.28656C2.92283 1.51441 2.22699 2.06743 1.577 2.69208L3.24985 1.28656ZM20.2354 16.2708C20.8897 16.7299 20.9541 17.6867 20.4142 18.4559L20.2354 16.2708ZM1.577 2.69208C1.25322 3.0032 0.93933 3.33125 0.695023 3.65695C0.457985 3.97062 0.215735 4.29869 0.230063 4.77769L0.23008 4.7782C0.243097 5.16869 0.283271 6.30618 1.09774 8.04078L1.09776 8.04084C1.91019 9.76929 3.47977 12.1281 6.52702 15.1771L6.52706 15.1772C9.57613 18.2262 11.9349 19.7958 13.6634 20.6083C15.3962 21.4228 16.5356 21.4629 16.926 21.4759L16.9265 21.4759C17.4039 21.4903 17.7321 21.2478 18.0457 21.0108C18.371 20.765 18.6988 20.4532 19.0103 20.129L19.0105 20.1289C19.6331 19.4791 20.186 18.7834 20.4139 18.4564L1.577 2.69208ZM0.379997 4.7732C0.392575 5.15055 0.43031 6.26641 1.23351 7.97703C2.03672 9.68586 3.59461 12.0308 6.63312 15.0711C9.67343 18.1114 12.0184 19.6693 13.7272 20.4725L0.379997 4.7732ZM4.46058 2.20196C4.59085 2.39079 5.19311 3.29371 5.77489 4.17315C6.37302 5.07904 6.98099 6.00387 7.11887 6.22037C7.11934 6.22487 7.1198 6.23048 7.12017 6.23726C7.12176 6.26602 7.12131 6.30889 7.11524 6.36217C7.10311 6.46862 7.06913 6.61136 6.98929 6.76227L6.97187 6.79519V6.79691C6.8591 7.00795 6.58923 7.48687 6.34026 7.9257C6.20928 8.15658 6.08463 8.37541 5.99271 8.53653L5.88272 8.72918L5.85234 8.78233L5.84439 8.79623L5.84236 8.79978L5.84185 8.80068L5.84172 8.8009L5.84169 8.80095L5.97187 8.87547L5.84168 8.80097L5.84133 8.80159L5.71015 9.03339L5.66761 9.10857L5.71128 9.1831L5.84605 9.4131L5.84643 9.41375L5.97547 9.33727L5.84648 9.41384L5.84655 9.41395L5.84673 9.41426L5.84729 9.4152L5.84921 9.41838L5.85628 9.42994C5.86246 9.43996 5.8716 9.45459 5.88392 9.4738C5.90855 9.51221 5.94585 9.56894 5.99745 9.64371C6.10065 9.79324 6.26104 10.015 6.49163 10.3067C6.95282 10.8902 7.69481 11.7539 8.82167 12.8808L8.82171 12.8808C9.94944 14.0076 10.8136 14.75 11.3973 15.2117C11.6891 15.4425 11.9109 15.6031 12.0604 15.7064C12.1352 15.7581 12.1919 15.7955 12.2303 15.8201C12.2495 15.8325 12.2641 15.8416 12.2741 15.8478L12.2857 15.8549L12.2889 15.8568L12.2898 15.8574L12.2901 15.8576L12.2902 15.8576L12.367 15.7288L12.2903 15.8577L12.2911 15.8582L12.5211 15.9929L12.5956 16.0366L12.6708 15.9941L12.9026 15.8629L12.9033 15.8625L12.8287 15.7323L12.9033 15.8625L12.9033 15.8625L12.9036 15.8624L12.9044 15.8618L12.908 15.8598L12.9219 15.8519L12.9749 15.8216L13.1672 15.7117C13.328 15.62 13.5465 15.4955 13.7772 15.3646C14.2398 15.1021 14.7475 14.8161 14.9398 14.7151C15.0908 14.636 15.2336 14.6021 15.3409 14.5901C15.3947 14.5842 15.4382 14.5839 15.4678 14.5857C15.4769 14.5863 15.4841 14.587 15.4894 14.5877C15.8851 14.8365 19.1293 16.9918 19.5088 17.2513C19.5101 17.254 19.5114 17.257 19.5128 17.2603C19.5226 17.2831 19.5342 17.3183 19.5393 17.3634C19.5482 17.4423 19.5386 17.5612 19.4481 17.7089L19.4152 17.7562C19.251 17.9919 18.7027 18.6884 18.131 19.2832C17.8436 19.5813 17.5537 19.8548 17.3118 20.0363C17.1969 20.1224 17.0878 20.1793 17.0106 20.2152C16.9822 20.2284 16.9599 20.238 16.9409 20.2462C16.9339 20.2492 16.9274 20.252 16.9212 20.2547C16.5234 20.2424 15.6863 20.2097 14.1827 19.503L14.1826 19.5029C12.6157 18.7683 10.3656 17.2905 7.38969 14.3128L7.38966 14.3128C4.41564 11.3387 2.93775 9.08859 2.20128 7.51984C1.49626 6.01614 1.46358 5.17895 1.45132 4.78277C1.45399 4.77661 1.45676 4.77012 1.45973 4.76318C1.46794 4.74392 1.47765 4.72117 1.49095 4.69241C1.5268 4.61487 1.58372 4.50535 1.66976 4.39063C1.85149 4.14832 2.12349 3.85644 2.42095 3.56966C2.95183 3.06097 3.56017 2.57091 3.85392 2.35339L3.94858 2.28687C4.11498 2.16994 4.25151 2.15896 4.34378 2.1693C4.39048 2.17542 4.42722 2.18771 4.45134 2.19789C4.45468 2.1993 4.45776 2.20067 4.46058 2.20196ZM1.32101 4.70606C1.33105 4.68253 1.34506 4.64969 1.36384 4.61016C1.42763 4.63951 1.44314 4.69855 1.44481 4.70492C1.44486 4.7051 1.4449 4.70524 1.44492 4.70533C1.44907 4.72034 1.44966 4.7322 1.44981 4.73513L1.44981 4.73517L1.30537 4.74111C1.30878 4.73471 1.3139 4.72272 1.32101 4.70606ZM16.9983 20.3848C16.9816 20.392 16.9696 20.3971 16.9631 20.4006L16.9691 20.2562C16.972 20.2563 16.9837 20.2569 16.9987 20.261L16.9991 20.2611C17.0058 20.2629 17.0644 20.2783 17.0939 20.3418C17.0545 20.3606 17.0218 20.3747 16.9983 20.3848Z" fill="#393A3A" stroke="#393A3A" stroke-width="0.3"/>
</svg>
