<svg width="28" height="26" viewBox="0 0 28 26" fill="none" xmlns="http://www.w3.org/2000/svg">
<path d="M25.3751 0C13.2037 0 10.6486 3.95683 10.6486 7.27667C10.6486 9.31974 11.9105 11.0347 13.1311 12.6926C14.1846 14.1245 15.1799 15.4769 15.1799 16.7923C15.1799 19.8245 10.3877 22.3197 8.54122 23.0249C8.03259 23.2197 7.73628 23.7445 7.83654 24.2745C7.93622 24.804 8.40398 25.1885 8.94943 25.1885H24.2423C24.5861 25.1885 24.9126 25.034 25.1273 24.7687C25.2298 24.6416 27.6407 21.6285 27.6407 18.6115C27.6407 15.8402 25.9272 13.5367 24.4149 11.5043C23.1614 9.81944 21.9767 8.22824 21.9767 6.71693C21.9767 4.54344 24.7971 2.66106 25.8818 2.12091C26.3513 1.88805 26.5976 1.36802 26.4769 0.862575C26.3563 0.357125 25.9007 0 25.3751 0Z" />
<path d="M3.90881 7.81712C3.32701 7.81712 2.80504 8.17795 2.59322 8.72622L0.145448 15.069C-0.10944 15.7286 -0.025838 16.4712 0.36885 17.0559C0.764244 17.6406 1.41913 17.9901 2.11883 17.9901H2.49669V20.8457H5.32093V17.9901H5.69878C6.39849 17.9901 7.05337 17.6406 7.44877 17.0559C7.84275 16.4712 7.92635 15.7286 7.67217 15.069L5.2244 8.72622C5.01258 8.17795 4.4906 7.81712 3.90881 7.81712Z" />
</svg>
