<svg width="24" height="24" viewBox="0 0 24 24" fill="none" xmlns="http://www.w3.org/2000/svg">
<path d="M12.0004 0C10.8702 0 9.7655 0.335125 8.82583 0.962996C7.88616 1.59087 7.15378 2.48328 6.7213 3.5274C6.28882 4.57151 6.17566 5.72042 6.39614 6.82884C6.61661 7.93727 7.16082 8.95542 7.95994 9.75455C8.75906 10.5537 9.77721 11.0979 10.8856 11.3184C11.994 11.5388 13.1429 11.4257 14.187 10.9932C15.2311 10.5607 16.1235 9.82833 16.7514 8.88865C17.3793 7.94898 17.7144 6.84422 17.7144 5.71408C17.7144 4.9637 17.5666 4.22066 17.2794 3.5274C16.9923 2.83413 16.5714 2.20422 16.0408 1.67362C15.5102 1.14301 14.8803 0.722118 14.187 0.434959C13.4938 0.147799 12.7507 0 12.0004 0ZM13.212 12.5718H10.7887C7.91841 12.581 5.16926 13.7299 3.14601 15.7659C1.12276 17.8019 -0.0088628 20.5582 5.22786e-05 23.4286C5.22786e-05 23.5801 0.0602535 23.7255 0.167412 23.8326C0.274571 23.9398 0.41991 24 0.571455 24H23.4284C23.5871 23.9856 23.7344 23.9115 23.8405 23.7926C23.9466 23.6738 24.0035 23.519 23.9998 23.3597C23.9937 20.5004 22.855 17.7598 20.8331 15.738C18.8111 13.7162 16.0705 12.5777 13.2112 12.5718H13.212Z" />
</svg>
