<svg width="20" height="20" viewBox="0 0 20 20" fill="none" xmlns="http://www.w3.org/2000/svg">
<path d="M12.6085 13.4715C12.5427 12.7564 12.5687 12.2578 12.5687 11.605C12.8925 11.4354 13.4725 10.3532 13.5695 9.43902C13.824 9.41824 14.2257 9.17064 14.3434 8.19065C14.4057 7.66429 14.1547 7.36822 14.0006 7.27472C14.4144 6.02982 15.2749 2.17738 12.4111 1.77915C12.115 1.26145 11.3601 1 10.3801 1C6.45498 1.07272 5.9823 3.96422 6.84282 7.27472C6.68873 7.36822 6.43767 7.66429 6.5 8.19065C6.61947 9.17064 7.01943 9.41824 7.27395 9.43902C7.37091 10.3532 7.97345 11.4354 8.29896 11.605C8.29896 12.2578 8.3232 12.7564 8.25741 13.4715C7.48172 15.5596 2.2424 14.9727 2 19H18.8434C18.601 14.9727 13.3842 15.5596 12.6085 13.4715Z" fill="#393A3A"/>
</svg>
